Coordinates
version=1
nRows=22
nColumns=24
inDegrees=yes

Units are S.I. units (second, meters, Newtons, ...)
Angles are in degrees.

endheader
time	pelvis_tilt	pelvis_list	pelvis_rotation	pelvis_tx	pelvis_ty	pelvis_tz	hip_flexion_r	hip_adduction_r	hip_rotation_r	knee_angle_r	ankle_angle_r	subtalar_angle_r	mtp_angle_r	hip_flexion_l	hip_adduction_l	hip_rotation_l	knee_angle_l	ankle_angle_l	subtalar_angle_l	mtp_angle_l	lumbar_extension	lumbar_bending	lumbar_rotation
      1.15383333	     -1.57616934	     -1.65354557	     -4.11950768	      0.17841679	      1.06583079	      0.28683296	     12.57314732	     -1.12767200	     -5.15994213	    -68.71273377	     -1.63721263	     -8.62891916	      6.57390214	     15.76019750	     -2.62166621	     -0.74545673	    -26.65642521	     15.18130371	      3.79820657	      4.51699162	    -10.51561010	      2.28601336	      0.34330319
      1.15800000	     -1.57494179	     -1.81168212	     -4.20840322	      0.18381003	      1.06731320	      0.28689417	     13.16973230	     -0.90316432	     -5.27888883	    -68.82964800	     -1.27176235	     -8.48593510	      6.56107773	     15.17173396	     -2.78165413	     -0.80038547	    -26.16754813	     15.19841686	      3.76862174	      4.51210987	    -10.54156641	      2.46043501	      0.28478403
      1.16216667	     -1.59073992	     -1.95453131	     -4.29708140	      0.18921616	      1.06876613	      0.28697380	     13.77410415	     -0.69018690	     -5.39775039	    -68.87573330	     -0.88516411	     -8.25918138	      6.55626001	     14.59131329	     -2.92506350	     -0.85695486	    -25.65285041	     15.19473490	      3.73424527	      4.50638690	    -10.54291231	      2.61705872	      0.22109184
      1.16633333	     -1.58790409	     -2.11100673	     -4.37864911	      0.19460916	      1.07024606	      0.28705418	     14.33921575	     -0.45933258	     -5.52441439	    -68.83410958	     -0.49548834	     -7.97434436	      6.56121441	     13.98657242	     -3.08090059	     -0.91185171	    -25.12761753	     15.18241730	      3.70176493	      4.50049653	    -10.56956617	      2.79196747	      0.16033936
      1.17050000	     -1.58743116	     -2.26059880	     -4.45733418	      0.19999368	      1.07168668	      0.28715195	     14.89516349	     -0.23074553	     -5.65055964	    -68.72507470	     -0.09059673	     -7.63443008	      6.57724117	     13.38167595	     -3.22954906	     -0.97080278	    -24.59265341	     15.15881554	      3.66866282	      4.49452659	    -10.59563272	      2.95623745	      0.09634972
      1.17466667	     -1.57511718	     -2.42240301	     -4.52616981	      0.20537571	      1.07314319	      0.28723765	     15.41772033	      0.01095959	     -5.78896400	    -68.53129245	      0.30895196	     -7.24708847	      6.60463329	     12.76099015	     -3.38846013	     -1.02515200	    -24.04806045	     15.12950490	      3.64369810	      4.48870256	    -10.63848025	      3.14005315	      0.03229876
      1.17883333	     -1.55064350	     -2.58021908	     -4.59342765	      0.21075060	      1.07460560	      0.28733572	     15.91156240	      0.25140175	     -5.92596251	    -68.26343095	      0.71321643	     -6.82035005	      6.64290114	     12.12041832	     -3.54155084	     -1.08268703	    -23.48601945	     15.08584506	      3.61295111	      4.48291407	    -10.69691582	      3.31656290	     -0.03195863
      1.18300000	     -1.52658107	     -2.74167178	     -4.65354610	      0.21612271	      1.07604070	      0.28743305	     16.38846038	      0.49732810	     -6.07006007	    -67.92180603	      1.10652682	     -6.37004219	      6.68927337	     11.47985895	     -3.69731268	     -1.13711880	    -22.91994079	     15.03731431	      3.58260836	      4.47752401	    -10.75503849	      3.50278470	     -0.09206617
      1.18716667	     -1.48879537	     -2.90023403	     -4.70799796	      0.22148257	      1.07746315	      0.28753151	     16.83432751	      0.73992326	     -6.21732508	    -67.51122663	      1.50363482	     -5.89815168	      6.74851051	     10.82235217	     -3.84727517	     -1.18996418	    -22.34387164	     14.97760865	      3.54570390	      4.47216296	    -10.83191102	      3.67951080	     -0.15934823
      1.19133333	     -1.44252260	     -3.06492395	     -4.75503461	      0.22684340	      1.07886553	      0.28761987	     17.25166523	      0.98832883	     -6.37173845	    -67.02803841	      1.88520404	     -5.42105638	      6.81403847	     10.15560480	     -4.00218813	     -1.24327844	    -21.76581048	     14.91816551	      3.51631662	      4.46737368	    -10.91902752	      3.86812948	     -0.22432356
      1.19550000	     -1.39686756	     -3.23300707	     -4.79604453	      0.23219296	      1.08021618	      0.28771366	     17.65284737	      1.24183058	     -6.53074681	    -66.47856211	      2.25680951	     -4.94396535	      6.88796138	      9.49217989	     -4.16083101	     -1.29703457	    -21.18956968	     14.85845676	      3.49126882	      4.46331307	    -11.00792874	      4.06120449	     -0.28877759
      1.19966667	     -1.34912624	     -3.39056561	     -4.83308163	      0.23754073	      1.08152804	      0.28780070	     18.03767270	      1.48220729	     -6.69150655	    -65.87026359	      2.61995600	     -4.47436098	      6.97083123	      8.82495714	     -4.30557699	     -1.34857604	    -20.60486909	     14.78801956	      3.45592306	      4.45943081	    -11.09864440	      4.24346425	     -0.35846818
      1.20383333	     -1.29370346	     -3.55230553	     -4.86302977	      0.24288098	      1.08279673	      0.28788234	     18.39577483	      1.72655112	     -6.85644558	    -65.19723124	      2.96904890	     -4.02065013	      7.06220343	      8.15240595	     -4.45348504	     -1.39838887	    -20.02332200	     14.71973812	      3.42275518	      4.45656975	    -11.20210780	      4.43114141	     -0.42762443
      1.20800000	     -1.24906235	     -3.70805053	     -4.88686299	      0.24821949	      1.08399170	      0.28796532	     18.74946121	      1.96553686	     -7.02222300	    -64.46473170	      3.30141129	     -3.58912247	      7.15059521	      7.49574796	     -4.59528988	     -1.44897345	    -19.44566225	     14.65117754	      3.38972295	      4.45409583	    -11.28819447	      4.61465978	     -0.49340775
      1.21216667	     -1.19014238	     -3.86426373	     -4.90779198	      0.25355390	      1.08516128	      0.28804961	     19.07008268	      2.20396266	     -7.18830615	    -63.67201999	      3.61541237	     -3.19210809	      7.24665155	      6.82123146	     -4.73479727	     -1.49378285	    -18.86110186	     14.58111387	      3.35182991	      4.45250327	    -11.39578515	      4.79600904	     -0.56637856
      1.21633333	     -1.13238144	     -4.02084138	     -4.92221875	      0.25886916	      1.08627402	      0.28812652	     19.37459565	      2.44419058	     -7.35244733	    -62.81826926	      3.91666471	     -2.83604066	      7.36858116	      6.15245157	     -4.87316275	     -1.52862248	    -18.27896728	     14.49453294	      3.30346010	      4.45221876	    -11.51418518	      4.98186616	     -0.64983805
      1.22050000	     -1.09227262	     -4.17513070	     -4.92646872	      0.26421266	      1.08726314	      0.28818421	     19.68115007	      2.67582079	     -7.53092558	    -61.91584760	      4.19042329	     -2.49850238	      7.45938492	      5.51527732	     -5.01200702	     -1.58142408	    -17.72501584	     14.45295969	      3.27776431	      4.45243787	    -11.58491026	      5.16864224	     -0.71073111
      1.22466667	     -1.04681405	     -4.32532232	     -4.93058222	      0.26953582	      1.08821573	      0.28825086	     19.96547504	      2.90676415	     -7.69714887	    -60.95551819	      4.45051218	     -2.20927028	      7.55322049	      4.87076833	     -5.14424456	     -1.62358255	    -17.16206733	     14.38973017	      3.23942595	      4.45277789	    -11.67814194	      5.34962889	     -0.78668381
      1.22883333	     -1.01364826	     -4.47226628	     -4.92917507	      0.27486532	      1.08905832	      0.28831455	     20.24689613	      3.13458407	     -7.86252123	    -59.94629103	      4.69745392	     -1.96062613	      7.65731087	      4.24562388	     -5.27268952	     -1.65628365	    -16.61115891	     14.33521997	      3.20129840	      4.45430241	    -11.76015331	      5.53011351	     -0.87310102
      1.23300000	     -1.01079728	     -4.61468536	     -4.93084643	      0.28019224	      1.08976968	      0.28840575	     20.54644939	      3.36390235	     -8.01797450	    -58.88891362	      4.92299474	     -1.76048525	      7.72176233	      3.67064358	     -5.40495474	     -1.72667945	    -16.09652249	     14.27608065	      3.18212886	      4.45415878	    -11.79492948	      5.69847727	     -0.92517447
      1.23716667	     -0.96768487	     -4.74298542	     -4.92036294	      0.28551032	      1.09047783	      0.28845261	     20.78703881	      3.56423167	     -8.18120966	    -57.78695047	      5.13230900	     -1.58219227	      7.81362858	      3.04118899	     -5.50908287	     -1.74645896	    -15.55041030	     14.25400855	      3.13706118	      4.45636637	    -11.88399053	      5.86652941	     -1.02336643
      1.24133333	     -0.95140198	     -4.87463028	     -4.90930576	      0.29082630	      1.09106530	      0.28851662	     21.03854629	      3.77576835	     -8.33157244	    -56.63127944	      5.32360419	     -1.45307547	      7.90576422	      2.45556430	     -5.62224901	     -1.77919870	    -15.03581249	     14.21672094	      3.09368999	      4.45862458	    -11.94150308	      6.03446280	     -1.10960811
